<svg xmlns="http://www.w3.org/2000/svg" width="520" height="520" viewBox="0 0 520 520"><g transform="translate(-2268.242 -544)"><g transform="translate(2268.242 544)"><path d="M0,0H315.751a0,0,0,0,1,0,0V181.881a0,0,0,0,1,0,0H30a30,30,0,0,1-30-30V0A0,0,0,0,1,0,0Z" transform="translate(181.881 0) rotate(90)" fill="#36a9e0"/><path d="M0,0H285.751a30,30,0,0,1,30,30V180.192a0,0,0,0,1,0,0H0a0,0,0,0,1,0,0V0A0,0,0,0,1,0,0Z" transform="translate(520 204.249) rotate(90)" fill="#8ccff0"/><path d="M0,0H489.994a30,30,0,0,1,30,30V96.638a30,30,0,0,1-30,30H30a30,30,0,0,1-30-30V0A0,0,0,0,1,0,0Z" transform="translate(0 393.362)" fill="#8ccff0"/><path d="M30,0H489.994a30,30,0,0,1,30,30v96.638a0,0,0,0,1,0,0H8a8,8,0,0,1-8-8V30A30,30,0,0,1,30,0Z" transform="translate(0 0)" fill="#36a9e0"/></g></g></svg>