<svg width="292" height="176" viewBox="0 0 292 176" fill="none" xmlns="http://www.w3.org/2000/svg">
<g opacity="0.1">
<path fill-rule="evenodd" clip-rule="evenodd" d="M128.959 130.768C128.959 129.774 129.764 128.966 130.761 128.966C131.752 128.966 132.563 129.774 132.563 130.768C132.563 131.762 131.752 132.57 130.761 132.57C129.764 132.57 128.959 131.762 128.959 130.768Z" fill="black"/>
<path fill-rule="evenodd" clip-rule="evenodd" d="M128.959 116.439C128.959 115.445 129.764 114.637 130.761 114.637C131.752 114.637 132.563 115.445 132.563 116.439C132.563 117.43 131.752 118.241 130.761 118.241C129.764 118.241 128.959 117.43 128.959 116.439Z" fill="black"/>
<path fill-rule="evenodd" clip-rule="evenodd" d="M128.959 102.107C128.959 101.116 129.764 100.308 130.761 100.308C131.752 100.308 132.563 101.116 132.563 102.107C132.563 103.101 131.752 103.912 130.761 103.912C129.764 103.912 128.959 103.101 128.959 102.107Z" fill="black"/>
<path fill-rule="evenodd" clip-rule="evenodd" d="M128.959 87.7803C128.959 86.7865 129.764 85.9783 130.761 85.9783C131.752 85.9783 132.563 86.7865 132.563 87.7803C132.563 88.7741 131.752 89.5823 130.761 89.5823C129.764 89.5823 128.959 88.7741 128.959 87.7803Z" fill="black"/>
<path fill-rule="evenodd" clip-rule="evenodd" d="M114.63 130.768C114.63 129.775 115.436 128.966 116.432 128.966C117.429 128.966 118.234 129.775 118.234 130.768C118.234 131.762 117.429 132.57 116.432 132.57C115.436 132.57 114.63 131.762 114.63 130.768Z" fill="black"/>
<path fill-rule="evenodd" clip-rule="evenodd" d="M114.63 116.439C114.63 115.445 115.436 114.637 116.432 114.637C117.429 114.637 118.234 115.445 118.234 116.439C118.234 117.43 117.429 118.241 116.432 118.241C115.436 118.241 114.63 117.43 114.63 116.439Z" fill="black"/>
<path fill-rule="evenodd" clip-rule="evenodd" d="M114.63 102.107C114.63 101.116 115.436 100.308 116.432 100.308C117.429 100.308 118.234 101.116 118.234 102.107C118.234 103.101 117.429 103.912 116.432 103.912C115.436 103.912 114.63 103.101 114.63 102.107Z" fill="black"/>
<path fill-rule="evenodd" clip-rule="evenodd" d="M114.63 87.7803C114.63 86.7865 115.436 85.9783 116.432 85.9783C117.429 85.9783 118.234 86.7865 118.234 87.7803C118.234 88.7741 117.429 89.5823 116.432 89.5823C115.436 89.5823 114.63 88.7741 114.63 87.7803Z" fill="black"/>
<path fill-rule="evenodd" clip-rule="evenodd" d="M100.302 130.768C100.302 129.775 101.11 128.966 102.101 128.966C103.098 128.966 103.903 129.775 103.903 130.768C103.903 131.762 103.098 132.57 102.101 132.57C101.11 132.57 100.302 131.762 100.302 130.768Z" fill="black"/>
<path fill-rule="evenodd" clip-rule="evenodd" d="M100.302 116.439C100.302 115.445 101.11 114.637 102.101 114.637C103.098 114.637 103.903 115.445 103.903 116.439C103.903 117.43 103.098 118.241 102.101 118.241C101.11 118.241 100.302 117.43 100.302 116.439Z" fill="black"/>
<path fill-rule="evenodd" clip-rule="evenodd" d="M100.302 102.107C100.302 101.116 101.11 100.308 102.101 100.308C103.098 100.308 103.903 101.116 103.903 102.107C103.903 103.101 103.098 103.912 102.101 103.912C101.11 103.912 100.302 103.101 100.302 102.107Z" fill="black"/>
<path fill-rule="evenodd" clip-rule="evenodd" d="M100.302 87.7803C100.302 86.7865 101.11 85.9783 102.101 85.9783C103.098 85.9783 103.903 86.7865 103.903 87.7803C103.903 88.7741 103.098 89.5823 102.101 89.5823C101.11 89.5823 100.302 88.7741 100.302 87.7803Z" fill="black"/>
<path fill-rule="evenodd" clip-rule="evenodd" d="M85.9742 130.768C85.9742 129.775 86.7796 128.966 87.7761 128.966C88.77 128.966 89.5781 129.775 89.5781 130.768C89.5781 131.762 88.77 132.57 87.7761 132.57C86.7796 132.57 85.9742 131.762 85.9742 130.768Z" fill="black"/>
<path fill-rule="evenodd" clip-rule="evenodd" d="M85.9742 116.439C85.9742 115.445 86.7796 114.637 87.7761 114.637C88.77 114.637 89.5781 115.445 89.5781 116.439C89.5781 117.43 88.77 118.241 87.7761 118.241C86.7796 118.241 85.9742 117.43 85.9742 116.439Z" fill="black"/>
<path fill-rule="evenodd" clip-rule="evenodd" d="M85.9742 102.107C85.9742 101.116 86.7796 100.308 87.7761 100.308C88.77 100.308 89.5781 101.116 89.5781 102.107C89.5781 103.101 88.77 103.912 87.7761 103.912C86.7796 103.912 85.9742 103.101 85.9742 102.107Z" fill="black"/>
<path fill-rule="evenodd" clip-rule="evenodd" d="M85.9742 87.7803C85.9742 86.7865 86.7796 85.9783 87.7761 85.9783C88.77 85.9783 89.5781 86.7865 89.5781 87.7803C89.5781 88.7741 88.77 89.5823 87.7761 89.5823C86.7796 89.5823 85.9742 88.7741 85.9742 87.7803Z" fill="black"/>
<path fill-rule="evenodd" clip-rule="evenodd" d="M71.6451 130.768C71.6451 129.775 72.4505 128.966 73.447 128.966C74.4436 128.966 75.249 129.775 75.249 130.768C75.249 131.762 74.4436 132.57 73.447 132.57C72.4505 132.57 71.6451 131.762 71.6451 130.768Z" fill="black"/>
<path fill-rule="evenodd" clip-rule="evenodd" d="M71.6451 116.439C71.6451 115.445 72.4505 114.637 73.447 114.637C74.4436 114.637 75.249 115.445 75.249 116.439C75.249 117.43 74.4436 118.241 73.447 118.241C72.4505 118.241 71.6451 117.43 71.6451 116.439Z" fill="black"/>
<path fill-rule="evenodd" clip-rule="evenodd" d="M71.6451 102.107C71.6451 101.116 72.4505 100.308 73.447 100.308C74.4436 100.308 75.249 101.116 75.249 102.107C75.249 103.101 74.4436 103.912 73.447 103.912C72.4505 103.912 71.6451 103.101 71.6451 102.107Z" fill="black"/>
<path fill-rule="evenodd" clip-rule="evenodd" d="M71.6451 87.7803C71.6451 86.7865 72.4505 85.9783 73.447 85.9783C74.4436 85.9783 75.249 86.7865 75.249 87.7803C75.249 88.7741 74.4436 89.5823 73.447 89.5823C72.4505 89.5823 71.6451 88.7741 71.6451 87.7803Z" fill="black"/>
<path fill-rule="evenodd" clip-rule="evenodd" d="M57.315 130.768C57.315 129.775 58.1231 128.966 59.117 128.966C60.1108 128.966 60.9189 129.775 60.9189 130.768C60.9189 131.762 60.1108 132.57 59.117 132.57C58.1231 132.57 57.315 131.762 57.315 130.768Z" fill="black"/>
<path fill-rule="evenodd" clip-rule="evenodd" d="M57.315 116.439C57.315 115.445 58.1231 114.637 59.117 114.637C60.1108 114.637 60.9189 115.445 60.9189 116.439C60.9189 117.43 60.1108 118.241 59.117 118.241C58.1231 118.241 57.315 117.43 57.315 116.439Z" fill="black"/>
<path fill-rule="evenodd" clip-rule="evenodd" d="M57.315 102.107C57.315 101.116 58.1231 100.308 59.117 100.308C60.1108 100.308 60.9189 101.116 60.9189 102.107C60.9189 103.101 60.1108 103.912 59.117 103.912C58.1231 103.912 57.315 103.101 57.315 102.107Z" fill="black"/>
<path fill-rule="evenodd" clip-rule="evenodd" d="M57.315 87.7803C57.315 86.7865 58.1231 85.9783 59.117 85.9783C60.1108 85.9783 60.9189 86.7865 60.9189 87.7803C60.9189 88.7741 60.1108 89.5823 59.117 89.5823C58.1231 89.5823 57.315 88.7741 57.315 87.7803Z" fill="black"/>
<path fill-rule="evenodd" clip-rule="evenodd" d="M42.9868 130.768C42.9868 129.775 43.7923 128.966 44.7888 128.966C45.7854 128.966 46.5908 129.775 46.5908 130.768C46.5908 131.762 45.7854 132.57 44.7888 132.57C43.7923 132.57 42.9868 131.762 42.9868 130.768Z" fill="black"/>
<path fill-rule="evenodd" clip-rule="evenodd" d="M42.9868 116.439C42.9868 115.445 43.7923 114.637 44.7888 114.637C45.7854 114.637 46.5908 115.445 46.5908 116.439C46.5908 117.43 45.7854 118.241 44.7888 118.241C43.7923 118.241 42.9868 117.43 42.9868 116.439Z" fill="black"/>
<path fill-rule="evenodd" clip-rule="evenodd" d="M42.9868 102.107C42.9868 101.116 43.7923 100.308 44.7888 100.308C45.7854 100.308 46.5908 101.116 46.5908 102.107C46.5908 103.101 45.7854 103.912 44.7888 103.912C43.7923 103.912 42.9868 103.101 42.9868 102.107Z" fill="black"/>
<path fill-rule="evenodd" clip-rule="evenodd" d="M42.9868 87.7803C42.9868 86.7865 43.7923 85.9783 44.7888 85.9783C45.7854 85.9783 46.5908 86.7865 46.5908 87.7803C46.5908 88.7741 45.7854 89.5823 44.7888 89.5823C43.7923 89.5823 42.9868 88.7741 42.9868 87.7803Z" fill="black"/>
<path fill-rule="evenodd" clip-rule="evenodd" d="M28.6568 130.768C28.6568 129.775 29.4649 128.966 30.4588 128.966C31.4553 128.966 32.2607 129.775 32.2607 130.768C32.2607 131.762 31.4553 132.57 30.4588 132.57C29.4649 132.57 28.6568 131.762 28.6568 130.768Z" fill="black"/>
<path fill-rule="evenodd" clip-rule="evenodd" d="M28.6568 116.439C28.6568 115.445 29.4649 114.637 30.4588 114.637C31.4553 114.637 32.2607 115.445 32.2607 116.439C32.2607 117.43 31.4553 118.241 30.4588 118.241C29.4649 118.241 28.6568 117.43 28.6568 116.439Z" fill="black"/>
<path fill-rule="evenodd" clip-rule="evenodd" d="M28.6568 102.107C28.6568 101.116 29.4649 100.308 30.4588 100.308C31.4553 100.308 32.2607 101.116 32.2607 102.107C32.2607 103.101 31.4553 103.912 30.4588 103.912C29.4649 103.912 28.6568 103.101 28.6568 102.107Z" fill="black"/>
<path fill-rule="evenodd" clip-rule="evenodd" d="M28.6568 87.7803C28.6568 86.7865 29.4649 85.9783 30.4588 85.9783C31.4553 85.9783 32.2607 86.7865 32.2607 87.7803C32.2607 88.7741 31.4553 89.5823 30.4588 89.5823C29.4649 89.5823 28.6568 88.7741 28.6568 87.7803Z" fill="black"/>
<path fill-rule="evenodd" clip-rule="evenodd" d="M14.3286 130.768C14.3286 129.775 15.1341 128.966 16.1306 128.966C17.1217 128.966 17.9326 129.775 17.9326 130.768C17.9326 131.762 17.1217 132.57 16.1306 132.57C15.1341 132.57 14.3286 131.762 14.3286 130.768Z" fill="black"/>
<path fill-rule="evenodd" clip-rule="evenodd" d="M14.3286 116.439C14.3286 115.445 15.1341 114.637 16.1306 114.637C17.1217 114.637 17.9326 115.445 17.9326 116.439C17.9326 117.43 17.1217 118.241 16.1306 118.241C15.1341 118.241 14.3286 117.43 14.3286 116.439Z" fill="black"/>
<path fill-rule="evenodd" clip-rule="evenodd" d="M14.3286 102.107C14.3286 101.116 15.1341 100.308 16.1306 100.308C17.1217 100.308 17.9326 101.116 17.9326 102.107C17.9326 103.101 17.1217 103.912 16.1306 103.912C15.1341 103.912 14.3286 103.101 14.3286 102.107Z" fill="black"/>
<path fill-rule="evenodd" clip-rule="evenodd" d="M14.3286 87.7803C14.3286 86.7865 15.1341 85.9783 16.1306 85.9783C17.1217 85.9783 17.9326 86.7865 17.9326 87.7803C17.9326 88.7741 17.1217 89.5823 16.1306 89.5823C15.1341 89.5823 14.3286 88.7741 14.3286 87.7803Z" fill="black"/>
<path fill-rule="evenodd" clip-rule="evenodd" d="M-0.000456312 130.768C-0.0004563 129.775 0.804977 128.966 1.80153 128.966C2.79808 128.966 3.60352 129.775 3.60352 130.768C3.60352 131.762 2.79808 132.57 1.80153 132.57C0.804977 132.57 -0.000456324 131.762 -0.000456312 130.768Z" fill="black"/>
<path fill-rule="evenodd" clip-rule="evenodd" d="M-0.000456312 116.439C-0.0004563 115.445 0.804977 114.637 1.80153 114.637C2.79808 114.637 3.60352 115.445 3.60352 116.439C3.60352 117.43 2.79808 118.241 1.80153 118.241C0.804977 118.241 -0.000456323 117.43 -0.000456312 116.439Z" fill="black"/>
<path fill-rule="evenodd" clip-rule="evenodd" d="M-0.000456312 102.107C-0.0004563 101.116 0.804977 100.308 1.80153 100.308C2.79808 100.308 3.60352 101.116 3.60352 102.107C3.60352 103.101 2.79808 103.912 1.80153 103.912C0.804977 103.912 -0.000456323 103.101 -0.000456312 102.107Z" fill="black"/>
<path fill-rule="evenodd" clip-rule="evenodd" d="M-0.000456312 87.7803C-0.0004563 86.7865 0.804977 85.9783 1.80153 85.9783C2.79808 85.9783 3.60352 86.7865 3.60352 87.7803C3.60352 88.7741 2.79808 89.5823 1.80153 89.5823C0.804977 89.5823 -0.000456324 88.7741 -0.000456312 87.7803Z" fill="black"/>
<path fill-rule="evenodd" clip-rule="evenodd" d="M128.959 73.4482C128.959 72.4571 129.764 71.6462 130.761 71.6462C131.752 71.6462 132.563 72.4571 132.563 73.4482C132.563 74.442 131.752 75.2529 130.761 75.2529C129.764 75.2529 128.959 74.442 128.959 73.4482Z" fill="black"/>
<path fill-rule="evenodd" clip-rule="evenodd" d="M128.959 59.1216C128.959 58.1251 129.764 57.3169 130.761 57.3169C131.752 57.3169 132.563 58.1251 132.563 59.1216C132.563 60.1127 131.752 60.9209 130.761 60.9209C129.764 60.9209 128.959 60.1127 128.959 59.1216Z" fill="black"/>
<path fill-rule="evenodd" clip-rule="evenodd" d="M128.959 44.7896C128.959 43.7957 129.764 42.9876 130.761 42.9876C131.752 42.9876 132.563 43.7957 132.563 44.7896C132.563 45.7834 131.752 46.5916 130.761 46.5916C129.764 46.5916 128.959 45.7834 128.959 44.7896Z" fill="black"/>
<path fill-rule="evenodd" clip-rule="evenodd" d="M128.959 30.4605C128.959 29.4666 129.764 28.6585 130.761 28.6585C131.752 28.6585 132.563 29.4666 132.563 30.4605C132.563 31.4516 131.752 32.2625 130.761 32.2625C129.764 32.2625 128.959 31.4516 128.959 30.4605Z" fill="black"/>
<path fill-rule="evenodd" clip-rule="evenodd" d="M128.959 16.1281C128.959 15.1371 129.764 14.3289 130.761 14.3289C131.752 14.3289 132.563 15.1371 132.563 16.1281C132.563 17.122 131.752 17.9329 130.761 17.9329C129.764 17.9329 128.959 17.122 128.959 16.1281Z" fill="black"/>
<path fill-rule="evenodd" clip-rule="evenodd" d="M128.959 1.80177C128.959 0.807951 129.764 -0.000212226 130.761 -0.000212214C131.752 -0.000212202 132.563 0.807951 132.563 1.80177C132.563 2.7956 131.752 3.60376 130.761 3.60376C129.764 3.60376 128.959 2.7956 128.959 1.80177Z" fill="black"/>
<path fill-rule="evenodd" clip-rule="evenodd" d="M114.63 73.4482C114.63 72.4571 115.436 71.6462 116.432 71.6462C117.429 71.6462 118.234 72.4571 118.234 73.4482C118.234 74.442 117.429 75.2529 116.432 75.2529C115.436 75.2529 114.63 74.442 114.63 73.4482Z" fill="black"/>
<path fill-rule="evenodd" clip-rule="evenodd" d="M114.63 59.1216C114.63 58.1251 115.436 57.3169 116.432 57.3169C117.429 57.3169 118.234 58.1251 118.234 59.1216C118.234 60.1127 117.429 60.9209 116.432 60.9209C115.436 60.9209 114.63 60.1127 114.63 59.1216Z" fill="black"/>
<path fill-rule="evenodd" clip-rule="evenodd" d="M114.63 44.7896C114.63 43.7957 115.436 42.9876 116.432 42.9876C117.429 42.9876 118.234 43.7957 118.234 44.7896C118.234 45.7834 117.429 46.5916 116.432 46.5916C115.436 46.5916 114.63 45.7834 114.63 44.7896Z" fill="black"/>
<path fill-rule="evenodd" clip-rule="evenodd" d="M114.63 30.4605C114.63 29.4666 115.436 28.6585 116.432 28.6585C117.429 28.6585 118.234 29.4666 118.234 30.4605C118.234 31.4516 117.429 32.2625 116.432 32.2625C115.436 32.2625 114.63 31.4516 114.63 30.4605Z" fill="black"/>
<path fill-rule="evenodd" clip-rule="evenodd" d="M114.63 16.1281C114.63 15.1371 115.436 14.3289 116.432 14.3289C117.429 14.3289 118.234 15.1371 118.234 16.1281C118.234 17.122 117.429 17.9329 116.432 17.9329C115.436 17.9329 114.63 17.122 114.63 16.1281Z" fill="black"/>
<path fill-rule="evenodd" clip-rule="evenodd" d="M114.63 1.80177C114.63 0.807951 115.436 -0.000212226 116.432 -0.000212214C117.429 -0.000212202 118.234 0.807951 118.234 1.80177C118.234 2.7956 117.429 3.60376 116.432 3.60376C115.436 3.60376 114.63 2.7956 114.63 1.80177Z" fill="black"/>
<path fill-rule="evenodd" clip-rule="evenodd" d="M100.302 73.4482C100.302 72.4571 101.11 71.6462 102.101 71.6462C103.098 71.6462 103.903 72.4571 103.903 73.4482C103.903 74.442 103.098 75.2529 102.101 75.2529C101.11 75.2529 100.302 74.442 100.302 73.4482Z" fill="black"/>
<path fill-rule="evenodd" clip-rule="evenodd" d="M100.302 59.1216C100.302 58.1251 101.11 57.3169 102.101 57.3169C103.098 57.3169 103.903 58.1251 103.903 59.1216C103.903 60.1127 103.098 60.9209 102.101 60.9209C101.11 60.9209 100.302 60.1127 100.302 59.1216Z" fill="black"/>
<path fill-rule="evenodd" clip-rule="evenodd" d="M100.302 44.7896C100.302 43.7957 101.11 42.9876 102.101 42.9876C103.098 42.9876 103.903 43.7957 103.903 44.7896C103.903 45.7834 103.098 46.5916 102.101 46.5916C101.11 46.5916 100.302 45.7834 100.302 44.7896Z" fill="black"/>
<path fill-rule="evenodd" clip-rule="evenodd" d="M100.302 30.4605C100.302 29.4666 101.11 28.6585 102.101 28.6585C103.098 28.6585 103.903 29.4666 103.903 30.4605C103.903 31.4516 103.098 32.2625 102.101 32.2625C101.11 32.2625 100.302 31.4516 100.302 30.4605Z" fill="black"/>
<path fill-rule="evenodd" clip-rule="evenodd" d="M100.302 16.1281C100.302 15.1371 101.11 14.3289 102.101 14.3289C103.098 14.3289 103.903 15.1371 103.903 16.1281C103.903 17.122 103.098 17.9329 102.101 17.9329C101.11 17.9329 100.302 17.122 100.302 16.1281Z" fill="black"/>
<path fill-rule="evenodd" clip-rule="evenodd" d="M100.302 1.80177C100.302 0.807951 101.11 -0.000212226 102.101 -0.000212214C103.098 -0.000212202 103.903 0.807951 103.903 1.80177C103.903 2.7956 103.098 3.60376 102.101 3.60376C101.11 3.60376 100.302 2.7956 100.302 1.80177Z" fill="black"/>
<path fill-rule="evenodd" clip-rule="evenodd" d="M85.9742 73.4482C85.9742 72.4571 86.7796 71.6462 87.7761 71.6462C88.77 71.6462 89.5781 72.4571 89.5781 73.4482C89.5781 74.442 88.77 75.2529 87.7761 75.2529C86.7796 75.2529 85.9742 74.442 85.9742 73.4482Z" fill="black"/>
<path fill-rule="evenodd" clip-rule="evenodd" d="M85.9742 59.1216C85.9742 58.1251 86.7796 57.3169 87.7761 57.3169C88.77 57.3169 89.5781 58.1251 89.5781 59.1216C89.5781 60.1127 88.77 60.9209 87.7761 60.9209C86.7796 60.9209 85.9742 60.1127 85.9742 59.1216Z" fill="black"/>
<path fill-rule="evenodd" clip-rule="evenodd" d="M85.9742 44.7896C85.9742 43.7957 86.7796 42.9876 87.7761 42.9876C88.77 42.9876 89.5781 43.7957 89.5781 44.7896C89.5781 45.7834 88.77 46.5916 87.7761 46.5916C86.7796 46.5916 85.9742 45.7834 85.9742 44.7896Z" fill="black"/>
<path fill-rule="evenodd" clip-rule="evenodd" d="M85.9742 30.4605C85.9742 29.4666 86.7796 28.6585 87.7761 28.6585C88.77 28.6585 89.5781 29.4666 89.5781 30.4605C89.5781 31.4516 88.77 32.2625 87.7761 32.2625C86.7796 32.2625 85.9742 31.4516 85.9742 30.4605Z" fill="black"/>
<path fill-rule="evenodd" clip-rule="evenodd" d="M85.9742 16.1281C85.9742 15.1371 86.7796 14.3289 87.7761 14.3289C88.77 14.3289 89.5781 15.1371 89.5781 16.1281C89.5781 17.122 88.77 17.9329 87.7761 17.9329C86.7796 17.9329 85.9742 17.122 85.9742 16.1281Z" fill="black"/>
<path fill-rule="evenodd" clip-rule="evenodd" d="M85.9742 1.80177C85.9742 0.807951 86.7796 -0.000212226 87.7761 -0.000212214C88.77 -0.000212202 89.5781 0.807951 89.5781 1.80177C89.5781 2.7956 88.77 3.60376 87.7761 3.60376C86.7796 3.60376 85.9742 2.7956 85.9742 1.80177Z" fill="black"/>
<path fill-rule="evenodd" clip-rule="evenodd" d="M71.6451 73.4482C71.6451 72.4571 72.4505 71.6462 73.447 71.6462C74.4436 71.6462 75.249 72.4571 75.249 73.4482C75.249 74.442 74.4436 75.2529 73.447 75.2529C72.4505 75.2529 71.6451 74.442 71.6451 73.4482Z" fill="black"/>
<path fill-rule="evenodd" clip-rule="evenodd" d="M71.6451 59.1216C71.6451 58.1251 72.4505 57.3169 73.447 57.3169C74.4436 57.3169 75.249 58.1251 75.249 59.1216C75.249 60.1127 74.4436 60.9209 73.447 60.9209C72.4505 60.9209 71.6451 60.1127 71.6451 59.1216Z" fill="black"/>
<path fill-rule="evenodd" clip-rule="evenodd" d="M71.6451 44.7896C71.6451 43.7957 72.4505 42.9876 73.447 42.9876C74.4436 42.9876 75.249 43.7957 75.249 44.7896C75.249 45.7834 74.4436 46.5916 73.447 46.5916C72.4505 46.5916 71.6451 45.7834 71.6451 44.7896Z" fill="black"/>
<path fill-rule="evenodd" clip-rule="evenodd" d="M71.6451 30.4605C71.6451 29.4666 72.4505 28.6585 73.447 28.6585C74.4436 28.6585 75.249 29.4666 75.249 30.4605C75.249 31.4516 74.4436 32.2625 73.447 32.2625C72.4505 32.2625 71.6451 31.4516 71.6451 30.4605Z" fill="black"/>
<path fill-rule="evenodd" clip-rule="evenodd" d="M71.6451 16.1281C71.6451 15.1371 72.4505 14.3289 73.447 14.3289C74.4436 14.3289 75.249 15.1371 75.249 16.1281C75.249 17.122 74.4436 17.9329 73.447 17.9329C72.4505 17.9329 71.6451 17.122 71.6451 16.1281Z" fill="black"/>
<path fill-rule="evenodd" clip-rule="evenodd" d="M71.6451 1.80177C71.6451 0.807951 72.4505 -0.000212226 73.447 -0.000212214C74.4436 -0.000212202 75.249 0.807951 75.249 1.80177C75.249 2.7956 74.4436 3.60376 73.447 3.60376C72.4505 3.60376 71.6451 2.7956 71.6451 1.80177Z" fill="black"/>
<path fill-rule="evenodd" clip-rule="evenodd" d="M57.315 73.4482C57.315 72.4571 58.1231 71.6462 59.117 71.6462C60.1108 71.6462 60.9189 72.4571 60.9189 73.4482C60.9189 74.442 60.1108 75.2529 59.117 75.2529C58.1231 75.2529 57.315 74.442 57.315 73.4482Z" fill="black"/>
<path fill-rule="evenodd" clip-rule="evenodd" d="M57.315 59.1216C57.315 58.1251 58.1231 57.3169 59.117 57.3169C60.1108 57.3169 60.9189 58.1251 60.9189 59.1216C60.9189 60.1127 60.1108 60.9209 59.117 60.9209C58.1231 60.9209 57.315 60.1127 57.315 59.1216Z" fill="black"/>
<path fill-rule="evenodd" clip-rule="evenodd" d="M57.315 44.7896C57.315 43.7957 58.1231 42.9876 59.117 42.9876C60.1108 42.9876 60.9189 43.7957 60.9189 44.7896C60.9189 45.7834 60.1108 46.5916 59.117 46.5916C58.1231 46.5916 57.315 45.7834 57.315 44.7896Z" fill="black"/>
<path fill-rule="evenodd" clip-rule="evenodd" d="M57.315 30.4605C57.315 29.4666 58.1231 28.6585 59.117 28.6585C60.1108 28.6585 60.9189 29.4666 60.9189 30.4605C60.9189 31.4516 60.1108 32.2625 59.117 32.2625C58.1231 32.2625 57.315 31.4516 57.315 30.4605Z" fill="black"/>
<path fill-rule="evenodd" clip-rule="evenodd" d="M57.315 16.1281C57.315 15.1371 58.1231 14.3289 59.117 14.3289C60.1108 14.3289 60.9189 15.1371 60.9189 16.1281C60.9189 17.122 60.1108 17.9329 59.117 17.9329C58.1231 17.9329 57.315 17.122 57.315 16.1281Z" fill="black"/>
<path fill-rule="evenodd" clip-rule="evenodd" d="M57.315 1.80177C57.315 0.807951 58.1231 -0.000212226 59.117 -0.000212214C60.1108 -0.000212202 60.9189 0.807951 60.9189 1.80177C60.9189 2.7956 60.1108 3.60376 59.117 3.60376C58.1231 3.60376 57.315 2.7956 57.315 1.80177Z" fill="black"/>
<path fill-rule="evenodd" clip-rule="evenodd" d="M42.9868 73.4482C42.9868 72.4571 43.7923 71.6462 44.7888 71.6462C45.7854 71.6462 46.5908 72.4571 46.5908 73.4482C46.5908 74.442 45.7854 75.2529 44.7888 75.2529C43.7923 75.2529 42.9868 74.442 42.9868 73.4482Z" fill="black"/>
<path fill-rule="evenodd" clip-rule="evenodd" d="M42.9868 59.1216C42.9868 58.1251 43.7923 57.3169 44.7888 57.3169C45.7854 57.3169 46.5908 58.1251 46.5908 59.1216C46.5908 60.1127 45.7854 60.9209 44.7888 60.9209C43.7923 60.9209 42.9868 60.1127 42.9868 59.1216Z" fill="black"/>
<path fill-rule="evenodd" clip-rule="evenodd" d="M42.9868 44.7896C42.9868 43.7957 43.7923 42.9876 44.7888 42.9876C45.7854 42.9876 46.5908 43.7957 46.5908 44.7896C46.5908 45.7834 45.7854 46.5916 44.7888 46.5916C43.7923 46.5916 42.9868 45.7834 42.9868 44.7896Z" fill="black"/>
<path fill-rule="evenodd" clip-rule="evenodd" d="M42.9868 30.4605C42.9868 29.4666 43.7923 28.6585 44.7888 28.6585C45.7854 28.6585 46.5908 29.4666 46.5908 30.4605C46.5908 31.4516 45.7854 32.2625 44.7888 32.2625C43.7923 32.2625 42.9868 31.4516 42.9868 30.4605Z" fill="black"/>
<path fill-rule="evenodd" clip-rule="evenodd" d="M42.9868 16.1281C42.9868 15.1371 43.7923 14.3289 44.7888 14.3289C45.7854 14.3289 46.5908 15.1371 46.5908 16.1281C46.5908 17.122 45.7854 17.9329 44.7888 17.9329C43.7923 17.9329 42.9868 17.122 42.9868 16.1281Z" fill="black"/>
<path fill-rule="evenodd" clip-rule="evenodd" d="M42.9868 1.80177C42.9868 0.807951 43.7923 -0.000212226 44.7888 -0.000212214C45.7854 -0.000212202 46.5908 0.807951 46.5908 1.80177C46.5908 2.7956 45.7854 3.60376 44.7888 3.60376C43.7923 3.60376 42.9868 2.7956 42.9868 1.80177Z" fill="black"/>
<path fill-rule="evenodd" clip-rule="evenodd" d="M28.6568 73.4482C28.6568 72.4571 29.4649 71.6462 30.4588 71.6462C31.4553 71.6462 32.2607 72.4571 32.2607 73.4482C32.2607 74.442 31.4553 75.2529 30.4588 75.2529C29.4649 75.2529 28.6568 74.442 28.6568 73.4482Z" fill="black"/>
<path fill-rule="evenodd" clip-rule="evenodd" d="M28.6568 59.1216C28.6568 58.1251 29.4649 57.3169 30.4588 57.3169C31.4553 57.3169 32.2607 58.1251 32.2607 59.1216C32.2607 60.1127 31.4553 60.9209 30.4588 60.9209C29.4649 60.9209 28.6568 60.1127 28.6568 59.1216Z" fill="black"/>
<path fill-rule="evenodd" clip-rule="evenodd" d="M28.6568 44.7896C28.6568 43.7957 29.4649 42.9876 30.4588 42.9876C31.4553 42.9876 32.2607 43.7957 32.2607 44.7896C32.2607 45.7834 31.4553 46.5916 30.4588 46.5916C29.4649 46.5916 28.6568 45.7834 28.6568 44.7896Z" fill="black"/>
<path fill-rule="evenodd" clip-rule="evenodd" d="M28.6568 30.4605C28.6568 29.4666 29.4649 28.6585 30.4588 28.6585C31.4553 28.6585 32.2607 29.4666 32.2607 30.4605C32.2607 31.4516 31.4553 32.2625 30.4588 32.2625C29.4649 32.2625 28.6568 31.4516 28.6568 30.4605Z" fill="black"/>
<path fill-rule="evenodd" clip-rule="evenodd" d="M28.6568 16.1284C28.6568 15.1373 29.4649 14.3291 30.4588 14.3291C31.4553 14.3291 32.2607 15.1373 32.2607 16.1284C32.2607 17.1222 31.4553 17.9331 30.4588 17.9331C29.4649 17.9331 28.6568 17.1222 28.6568 16.1284Z" fill="black"/>
<path fill-rule="evenodd" clip-rule="evenodd" d="M28.6568 1.80177C28.6568 0.807951 29.4649 -0.000212226 30.4588 -0.000212214C31.4553 -0.000212202 32.2607 0.807951 32.2607 1.80177C32.2607 2.7956 31.4553 3.60376 30.4588 3.60376C29.4649 3.60376 28.6568 2.7956 28.6568 1.80177Z" fill="black"/>
<path fill-rule="evenodd" clip-rule="evenodd" d="M14.3286 73.4482C14.3286 72.4571 15.1341 71.6462 16.1306 71.6462C17.1217 71.6462 17.9326 72.4571 17.9326 73.4482C17.9326 74.442 17.1217 75.2529 16.1306 75.2529C15.1341 75.2529 14.3286 74.442 14.3286 73.4482Z" fill="black"/>
<path fill-rule="evenodd" clip-rule="evenodd" d="M14.3286 59.1216C14.3286 58.1251 15.1341 57.3169 16.1306 57.3169C17.1217 57.3169 17.9326 58.1251 17.9326 59.1216C17.9326 60.1127 17.1217 60.9209 16.1306 60.9209C15.1341 60.9209 14.3286 60.1127 14.3286 59.1216Z" fill="black"/>
<path fill-rule="evenodd" clip-rule="evenodd" d="M14.3286 44.7896C14.3286 43.7957 15.1341 42.9876 16.1306 42.9876C17.1217 42.9876 17.9326 43.7957 17.9326 44.7896C17.9326 45.7834 17.1217 46.5916 16.1306 46.5916C15.1341 46.5916 14.3286 45.7834 14.3286 44.7896Z" fill="black"/>
<path fill-rule="evenodd" clip-rule="evenodd" d="M14.3286 30.4605C14.3286 29.4666 15.1341 28.6585 16.1306 28.6585C17.1217 28.6585 17.9326 29.4666 17.9326 30.4605C17.9326 31.4516 17.1217 32.2625 16.1306 32.2625C15.1341 32.2625 14.3286 31.4516 14.3286 30.4605Z" fill="black"/>
<path fill-rule="evenodd" clip-rule="evenodd" d="M14.3286 16.1284C14.3286 15.1373 15.1341 14.3291 16.1306 14.3291C17.1217 14.3291 17.9326 15.1373 17.9326 16.1284C17.9326 17.1222 17.1217 17.9331 16.1306 17.9331C15.1341 17.9331 14.3286 17.1222 14.3286 16.1284Z" fill="black"/>
<path fill-rule="evenodd" clip-rule="evenodd" d="M14.3286 1.80177C14.3286 0.807951 15.1341 -0.000212226 16.1306 -0.000212214C17.1217 -0.000212202 17.9326 0.807951 17.9326 1.80177C17.9326 2.7956 17.1217 3.60376 16.1306 3.60376C15.1341 3.60376 14.3286 2.7956 14.3286 1.80177Z" fill="black"/>
<path fill-rule="evenodd" clip-rule="evenodd" d="M-0.000456312 73.4482C-0.0004563 72.4571 0.804977 71.6462 1.80153 71.6462C2.79808 71.6462 3.60352 72.4571 3.60352 73.4482C3.60352 74.442 2.79808 75.2529 1.80153 75.2529C0.804977 75.2529 -0.000456323 74.442 -0.000456312 73.4482Z" fill="black"/>
<path fill-rule="evenodd" clip-rule="evenodd" d="M-0.000456312 59.1216C-0.0004563 58.1251 0.804977 57.3169 1.80153 57.3169C2.79808 57.3169 3.60352 58.1251 3.60352 59.1216C3.60352 60.1127 2.79808 60.9209 1.80153 60.9209C0.804977 60.9209 -0.000456324 60.1127 -0.000456312 59.1216Z" fill="black"/>
<path fill-rule="evenodd" clip-rule="evenodd" d="M-0.000456312 44.7896C-0.0004563 43.7957 0.804977 42.9876 1.80153 42.9876C2.79808 42.9876 3.60352 43.7957 3.60352 44.7896C3.60352 45.7834 2.79808 46.5916 1.80153 46.5916C0.804977 46.5916 -0.000456324 45.7834 -0.000456312 44.7896Z" fill="black"/>
<path fill-rule="evenodd" clip-rule="evenodd" d="M-0.000456312 30.4605C-0.0004563 29.4666 0.804977 28.6585 1.80153 28.6585C2.79808 28.6585 3.60352 29.4666 3.60352 30.4605C3.60352 31.4516 2.79808 32.2625 1.80153 32.2625C0.804977 32.2625 -0.000456323 31.4516 -0.000456312 30.4605Z" fill="black"/>
<path fill-rule="evenodd" clip-rule="evenodd" d="M-0.000456312 16.1284C-0.0004563 15.1373 0.804977 14.3291 1.80153 14.3291C2.79808 14.3291 3.60352 15.1373 3.60352 16.1284C3.60352 17.1222 2.79808 17.9331 1.80153 17.9331C0.804977 17.9331 -0.000456323 17.1222 -0.000456312 16.1284Z" fill="black"/>
<path fill-rule="evenodd" clip-rule="evenodd" d="M-0.000456312 1.80177C-0.0004563 0.807951 0.804977 -0.000212226 1.80153 -0.000212214C2.79808 -0.000212202 3.60352 0.807951 3.60352 1.80177C3.60352 2.7956 2.79808 3.60376 1.80153 3.60376C0.804977 3.60376 -0.000456324 2.7956 -0.000456312 1.80177Z" fill="black"/>
</g>
<g opacity="0.1">
<path fill-rule="evenodd" clip-rule="evenodd" d="M260.395 130.768C260.395 129.775 261.2 128.966 262.197 128.966C263.194 128.966 263.999 129.775 263.999 130.768C263.999 131.762 263.194 132.57 262.197 132.57C261.2 132.57 260.395 131.762 260.395 130.768Z" fill="black"/>
<path fill-rule="evenodd" clip-rule="evenodd" d="M260.396 116.439C260.396 115.445 261.201 114.637 262.198 114.637C263.195 114.637 264 115.445 264 116.439C264 117.43 263.195 118.241 262.198 118.241C261.201 118.241 260.396 117.43 260.396 116.439Z" fill="black"/>
<path fill-rule="evenodd" clip-rule="evenodd" d="M260.396 102.107C260.396 101.116 261.201 100.308 262.198 100.308C263.195 100.308 264 101.116 264 102.107C264 103.101 263.195 103.912 262.198 103.912C261.201 103.912 260.396 103.101 260.396 102.107Z" fill="black"/>
<path fill-rule="evenodd" clip-rule="evenodd" d="M260.396 87.7803C260.396 86.7865 261.201 85.9783 262.198 85.9783C263.195 85.9783 264 86.7865 264 87.7803C264 88.7741 263.195 89.5823 262.198 89.5823C261.201 89.5823 260.396 88.7741 260.396 87.7803Z" fill="black"/>
<path fill-rule="evenodd" clip-rule="evenodd" d="M246.071 130.768C246.071 129.775 246.879 128.966 247.87 128.966C248.866 128.966 249.672 129.775 249.672 130.768C249.672 131.762 248.866 132.57 247.87 132.57C246.879 132.57 246.071 131.762 246.071 130.768Z" fill="black"/>
<path fill-rule="evenodd" clip-rule="evenodd" d="M246.071 116.439C246.071 115.445 246.879 114.637 247.87 114.637C248.866 114.637 249.672 115.445 249.672 116.439C249.672 117.43 248.866 118.241 247.87 118.241C246.879 118.241 246.071 117.43 246.071 116.439Z" fill="black"/>
<path fill-rule="evenodd" clip-rule="evenodd" d="M246.071 102.107C246.071 101.116 246.879 100.308 247.87 100.308C248.866 100.308 249.672 101.116 249.672 102.107C249.672 103.101 248.866 103.912 247.87 103.912C246.879 103.912 246.071 103.101 246.071 102.107Z" fill="black"/>
<path fill-rule="evenodd" clip-rule="evenodd" d="M246.071 87.7803C246.071 86.7865 246.879 85.9783 247.87 85.9783C248.866 85.9783 249.672 86.7865 249.672 87.7803C249.672 88.7741 248.866 89.5823 247.87 89.5823C246.879 89.5823 246.071 88.7741 246.071 87.7803Z" fill="black"/>
<path fill-rule="evenodd" clip-rule="evenodd" d="M231.741 130.768C231.741 129.775 232.546 128.966 233.543 128.966C234.537 128.966 235.345 129.775 235.345 130.768C235.345 131.762 234.537 132.57 233.543 132.57C232.546 132.57 231.741 131.762 231.741 130.768Z" fill="black"/>
<path fill-rule="evenodd" clip-rule="evenodd" d="M231.741 116.439C231.741 115.445 232.546 114.637 233.543 114.637C234.537 114.637 235.345 115.445 235.345 116.439C235.345 117.43 234.537 118.241 233.543 118.241C232.546 118.241 231.741 117.43 231.741 116.439Z" fill="black"/>
<path fill-rule="evenodd" clip-rule="evenodd" d="M231.741 102.107C231.741 101.116 232.546 100.308 233.543 100.308C234.537 100.308 235.345 101.116 235.345 102.107C235.345 103.101 234.537 103.912 233.543 103.912C232.546 103.912 231.741 103.101 231.741 102.107Z" fill="black"/>
<path fill-rule="evenodd" clip-rule="evenodd" d="M231.741 87.7803C231.741 86.7865 232.546 85.9783 233.543 85.9783C234.537 85.9783 235.345 86.7865 235.345 87.7803C235.345 88.7741 234.537 89.5823 233.543 89.5823C232.546 89.5823 231.741 88.7741 231.741 87.7803Z" fill="black"/>
<path fill-rule="evenodd" clip-rule="evenodd" d="M217.412 130.768C217.412 129.775 218.217 128.966 219.214 128.966C220.21 128.966 221.016 129.775 221.016 130.768C221.016 131.762 220.21 132.57 219.214 132.57C218.217 132.57 217.412 131.762 217.412 130.768Z" fill="black"/>
<path fill-rule="evenodd" clip-rule="evenodd" d="M217.412 116.439C217.412 115.445 218.217 114.637 219.214 114.637C220.21 114.637 221.016 115.445 221.016 116.439C221.016 117.43 220.21 118.241 219.214 118.241C218.217 118.241 217.412 117.43 217.412 116.439Z" fill="black"/>
<path fill-rule="evenodd" clip-rule="evenodd" d="M217.412 102.107C217.412 101.116 218.217 100.308 219.214 100.308C220.21 100.308 221.016 101.116 221.016 102.107C221.016 103.101 220.21 103.912 219.214 103.912C218.217 103.912 217.412 103.101 217.412 102.107Z" fill="black"/>
<path fill-rule="evenodd" clip-rule="evenodd" d="M217.412 87.7803C217.412 86.7865 218.217 85.9783 219.214 85.9783C220.21 85.9783 221.016 86.7865 221.016 87.7803C221.016 88.7741 220.21 89.5823 219.214 89.5823C218.217 89.5823 217.412 88.7741 217.412 87.7803Z" fill="black"/>
<path fill-rule="evenodd" clip-rule="evenodd" d="M203.083 130.768C203.083 129.775 203.891 128.966 204.885 128.966C205.878 128.966 206.687 129.775 206.687 130.768C206.687 131.762 205.878 132.57 204.885 132.57C203.891 132.57 203.083 131.762 203.083 130.768Z" fill="black"/>
<path fill-rule="evenodd" clip-rule="evenodd" d="M203.083 116.439C203.083 115.445 203.891 114.637 204.885 114.637C205.878 114.637 206.687 115.445 206.687 116.439C206.687 117.43 205.878 118.241 204.885 118.241C203.891 118.241 203.083 117.43 203.083 116.439Z" fill="black"/>
<path fill-rule="evenodd" clip-rule="evenodd" d="M203.083 102.107C203.083 101.116 203.891 100.308 204.885 100.308C205.878 100.308 206.687 101.116 206.687 102.107C206.687 103.101 205.878 103.912 204.885 103.912C203.891 103.912 203.083 103.101 203.083 102.107Z" fill="black"/>
<path fill-rule="evenodd" clip-rule="evenodd" d="M203.083 87.7803C203.083 86.7865 203.891 85.9783 204.885 85.9783C205.878 85.9783 206.687 86.7865 206.687 87.7803C206.687 88.7741 205.878 89.5823 204.885 89.5823C203.891 89.5823 203.083 88.7741 203.083 87.7803Z" fill="black"/>
<path fill-rule="evenodd" clip-rule="evenodd" d="M188.753 130.768C188.753 129.775 189.559 128.966 190.555 128.966C191.552 128.966 192.357 129.775 192.357 130.768C192.357 131.762 191.552 132.57 190.555 132.57C189.559 132.57 188.753 131.762 188.753 130.768Z" fill="black"/>
<path fill-rule="evenodd" clip-rule="evenodd" d="M188.753 116.439C188.753 115.445 189.559 114.637 190.555 114.637C191.552 114.637 192.357 115.445 192.357 116.439C192.357 117.43 191.552 118.241 190.555 118.241C189.559 118.241 188.753 117.43 188.753 116.439Z" fill="black"/>
<path fill-rule="evenodd" clip-rule="evenodd" d="M188.753 102.107C188.753 101.116 189.559 100.308 190.555 100.308C191.552 100.308 192.357 101.116 192.357 102.107C192.357 103.101 191.552 103.912 190.555 103.912C189.559 103.912 188.753 103.101 188.753 102.107Z" fill="black"/>
<path fill-rule="evenodd" clip-rule="evenodd" d="M188.753 87.7803C188.753 86.7865 189.559 85.9783 190.555 85.9783C191.552 85.9783 192.357 86.7865 192.357 87.7803C192.357 88.7741 191.552 89.5823 190.555 89.5823C189.559 89.5823 188.753 88.7741 188.753 87.7803Z" fill="black"/>
<path fill-rule="evenodd" clip-rule="evenodd" d="M174.424 130.768C174.424 129.775 175.233 128.966 176.226 128.966C177.223 128.966 178.028 129.775 178.028 130.768C178.028 131.762 177.223 132.57 176.226 132.57C175.233 132.57 174.424 131.762 174.424 130.768Z" fill="black"/>
<path fill-rule="evenodd" clip-rule="evenodd" d="M174.424 116.439C174.424 115.445 175.233 114.637 176.226 114.637C177.223 114.637 178.028 115.445 178.028 116.439C178.028 117.43 177.223 118.241 176.226 118.241C175.233 118.241 174.424 117.43 174.424 116.439Z" fill="black"/>
<path fill-rule="evenodd" clip-rule="evenodd" d="M174.424 102.107C174.424 101.116 175.233 100.308 176.226 100.308C177.223 100.308 178.028 101.116 178.028 102.107C178.028 103.101 177.223 103.912 176.226 103.912C175.233 103.912 174.424 103.101 174.424 102.107Z" fill="black"/>
<path fill-rule="evenodd" clip-rule="evenodd" d="M174.424 87.7803C174.424 86.7865 175.233 85.9783 176.226 85.9783C177.223 85.9783 178.028 86.7865 178.028 87.7803C178.028 88.7741 177.223 89.5823 176.226 89.5823C175.233 89.5823 174.424 88.7741 174.424 87.7803Z" fill="black"/>
<path fill-rule="evenodd" clip-rule="evenodd" d="M160.094 130.768C160.094 129.775 160.9 128.966 161.896 128.966C162.887 128.966 163.698 129.775 163.698 130.768C163.698 131.762 162.887 132.57 161.896 132.57C160.9 132.57 160.094 131.762 160.094 130.768Z" fill="black"/>
<path fill-rule="evenodd" clip-rule="evenodd" d="M160.094 116.439C160.094 115.445 160.9 114.637 161.896 114.637C162.887 114.637 163.698 115.445 163.698 116.439C163.698 117.43 162.887 118.241 161.896 118.241C160.9 118.241 160.094 117.43 160.094 116.439Z" fill="black"/>
<path fill-rule="evenodd" clip-rule="evenodd" d="M160.094 102.107C160.094 101.116 160.9 100.308 161.896 100.308C162.887 100.308 163.698 101.116 163.698 102.107C163.698 103.101 162.887 103.912 161.896 103.912C160.9 103.912 160.094 103.101 160.094 102.107Z" fill="black"/>
<path fill-rule="evenodd" clip-rule="evenodd" d="M160.094 87.7803C160.094 86.7865 160.9 85.9783 161.896 85.9783C162.887 85.9783 163.698 86.7865 163.698 87.7803C163.698 88.7741 162.887 89.5823 161.896 89.5823C160.9 89.5823 160.094 88.7741 160.094 87.7803Z" fill="black"/>
<path fill-rule="evenodd" clip-rule="evenodd" d="M145.766 130.768C145.766 129.775 146.572 128.966 147.568 128.966C148.565 128.966 149.37 129.775 149.37 130.768C149.37 131.762 148.565 132.57 147.568 132.57C146.572 132.57 145.766 131.762 145.766 130.768Z" fill="black"/>
<path fill-rule="evenodd" clip-rule="evenodd" d="M145.766 116.439C145.766 115.445 146.572 114.637 147.568 114.637C148.565 114.637 149.37 115.445 149.37 116.439C149.37 117.43 148.565 118.241 147.568 118.241C146.572 118.241 145.766 117.43 145.766 116.439Z" fill="black"/>
<path fill-rule="evenodd" clip-rule="evenodd" d="M145.766 102.107C145.766 101.116 146.572 100.308 147.568 100.308C148.565 100.308 149.37 101.116 149.37 102.107C149.37 103.101 148.565 103.912 147.568 103.912C146.572 103.912 145.766 103.101 145.766 102.107Z" fill="black"/>
<path fill-rule="evenodd" clip-rule="evenodd" d="M145.766 87.7803C145.766 86.7865 146.572 85.9783 147.568 85.9783C148.565 85.9783 149.37 86.7865 149.37 87.7803C149.37 88.7741 148.565 89.5823 147.568 89.5823C146.572 89.5823 145.766 88.7741 145.766 87.7803Z" fill="black"/>
<path fill-rule="evenodd" clip-rule="evenodd" d="M260.396 73.4482C260.396 72.4571 261.201 71.6462 262.198 71.6462C263.195 71.6462 264 72.4571 264 73.4482C264 74.442 263.195 75.2529 262.198 75.2529C261.201 75.2529 260.396 74.442 260.396 73.4482Z" fill="black"/>
<path fill-rule="evenodd" clip-rule="evenodd" d="M260.396 59.1216C260.396 58.1251 261.201 57.3169 262.198 57.3169C263.195 57.3169 264 58.1251 264 59.1216C264 60.1127 263.195 60.9209 262.198 60.9209C261.201 60.9209 260.396 60.1127 260.396 59.1216Z" fill="black"/>
<path fill-rule="evenodd" clip-rule="evenodd" d="M260.396 44.7896C260.396 43.7957 261.201 42.9876 262.198 42.9876C263.195 42.9876 264 43.7957 264 44.7896C264 45.7834 263.195 46.5916 262.198 46.5916C261.201 46.5916 260.396 45.7834 260.396 44.7896Z" fill="black"/>
<path fill-rule="evenodd" clip-rule="evenodd" d="M260.396 30.4602C260.396 29.4664 261.201 28.6582 262.198 28.6582C263.195 28.6582 264 29.4664 264 30.4602C264 31.4513 263.195 32.2622 262.198 32.2622C261.201 32.2622 260.396 31.4513 260.396 30.4602Z" fill="black"/>
<path fill-rule="evenodd" clip-rule="evenodd" d="M260.396 16.1284C260.396 15.1373 261.201 14.3291 262.198 14.3291C263.195 14.3291 264 15.1373 264 16.1284C264 17.1222 263.195 17.9331 262.198 17.9331C261.201 17.9331 260.396 17.1222 260.396 16.1284Z" fill="black"/>
<path fill-rule="evenodd" clip-rule="evenodd" d="M260.396 1.80177C260.396 0.807951 261.201 -0.000212226 262.198 -0.000212214C263.195 -0.000212202 264 0.807951 264 1.80177C264 2.7956 263.195 3.60376 262.198 3.60376C261.201 3.60376 260.396 2.7956 260.396 1.80177Z" fill="black"/>
<path fill-rule="evenodd" clip-rule="evenodd" d="M246.071 73.4482C246.071 72.4571 246.879 71.6462 247.87 71.6462C248.866 71.6462 249.672 72.4571 249.672 73.4482C249.672 74.442 248.866 75.2529 247.87 75.2529C246.879 75.2529 246.071 74.442 246.071 73.4482Z" fill="black"/>
<path fill-rule="evenodd" clip-rule="evenodd" d="M246.071 59.1216C246.071 58.1251 246.879 57.3169 247.87 57.3169C248.866 57.3169 249.672 58.1251 249.672 59.1216C249.672 60.1127 248.866 60.9209 247.87 60.9209C246.879 60.9209 246.071 60.1127 246.071 59.1216Z" fill="black"/>
<path fill-rule="evenodd" clip-rule="evenodd" d="M246.071 44.7896C246.071 43.7957 246.879 42.9876 247.87 42.9876C248.866 42.9876 249.672 43.7957 249.672 44.7896C249.672 45.7834 248.866 46.5916 247.87 46.5916C246.879 46.5916 246.071 45.7834 246.071 44.7896Z" fill="black"/>
<path fill-rule="evenodd" clip-rule="evenodd" d="M246.071 30.4602C246.071 29.4664 246.879 28.6582 247.87 28.6582C248.866 28.6582 249.672 29.4664 249.672 30.4602C249.672 31.4513 248.866 32.2622 247.87 32.2622C246.879 32.2622 246.071 31.4513 246.071 30.4602Z" fill="black"/>
<path fill-rule="evenodd" clip-rule="evenodd" d="M246.071 16.1284C246.071 15.1373 246.879 14.3291 247.87 14.3291C248.866 14.3291 249.672 15.1373 249.672 16.1284C249.672 17.1222 248.866 17.9331 247.87 17.9331C246.879 17.9331 246.071 17.1222 246.071 16.1284Z" fill="black"/>
<path fill-rule="evenodd" clip-rule="evenodd" d="M246.071 1.80177C246.071 0.807951 246.879 -0.000212226 247.87 -0.000212214C248.866 -0.000212202 249.672 0.807951 249.672 1.80177C249.672 2.7956 248.866 3.60376 247.87 3.60376C246.879 3.60376 246.071 2.7956 246.071 1.80177Z" fill="black"/>
<path fill-rule="evenodd" clip-rule="evenodd" d="M288.395 130.768C288.395 129.775 289.2 128.966 290.197 128.966C291.194 128.966 291.999 129.775 291.999 130.768C291.999 131.762 291.194 132.57 290.197 132.57C289.2 132.57 288.395 131.762 288.395 130.768Z" fill="black"/>
<path fill-rule="evenodd" clip-rule="evenodd" d="M288.396 116.439C288.396 115.445 289.201 114.637 290.198 114.637C291.195 114.637 292 115.445 292 116.439C292 117.43 291.195 118.241 290.198 118.241C289.201 118.241 288.396 117.43 288.396 116.439Z" fill="black"/>
<path fill-rule="evenodd" clip-rule="evenodd" d="M288.396 102.107C288.396 101.116 289.201 100.308 290.198 100.308C291.195 100.308 292 101.116 292 102.107C292 103.101 291.195 103.912 290.198 103.912C289.201 103.912 288.396 103.101 288.396 102.107Z" fill="black"/>
<path fill-rule="evenodd" clip-rule="evenodd" d="M288.396 87.7803C288.396 86.7865 289.201 85.9783 290.198 85.9783C291.195 85.9783 292 86.7865 292 87.7803C292 88.7741 291.195 89.5823 290.198 89.5823C289.201 89.5823 288.396 88.7741 288.396 87.7803Z" fill="black"/>
<path fill-rule="evenodd" clip-rule="evenodd" d="M274.071 130.768C274.071 129.775 274.879 128.966 275.87 128.966C276.866 128.966 277.672 129.775 277.672 130.768C277.672 131.762 276.866 132.57 275.87 132.57C274.879 132.57 274.071 131.762 274.071 130.768Z" fill="black"/>
<path fill-rule="evenodd" clip-rule="evenodd" d="M274.071 116.439C274.071 115.445 274.879 114.637 275.87 114.637C276.866 114.637 277.672 115.445 277.672 116.439C277.672 117.43 276.866 118.241 275.87 118.241C274.879 118.241 274.071 117.43 274.071 116.439Z" fill="black"/>
<path fill-rule="evenodd" clip-rule="evenodd" d="M274.071 102.107C274.071 101.116 274.879 100.308 275.87 100.308C276.866 100.308 277.672 101.116 277.672 102.107C277.672 103.101 276.866 103.912 275.87 103.912C274.879 103.912 274.071 103.101 274.071 102.107Z" fill="black"/>
<path fill-rule="evenodd" clip-rule="evenodd" d="M128.959 173.46C128.959 172.467 129.764 171.658 130.761 171.658C131.752 171.658 132.563 172.467 132.563 173.46C132.563 174.454 131.752 175.262 130.761 175.262C129.764 175.262 128.959 174.454 128.959 173.46Z" fill="black"/>
<path fill-rule="evenodd" clip-rule="evenodd" d="M128.959 159.131C128.959 158.138 129.764 157.329 130.761 157.329C131.752 157.329 132.563 158.138 132.563 159.131C132.563 160.122 131.752 160.933 130.761 160.933C129.764 160.933 128.959 160.122 128.959 159.131Z" fill="black"/>
<path fill-rule="evenodd" clip-rule="evenodd" d="M128.959 144.799C128.959 143.808 129.764 143 130.761 143C131.752 143 132.563 143.808 132.563 144.799C132.563 145.793 131.752 146.604 130.761 146.604C129.764 146.604 128.959 145.793 128.959 144.799Z" fill="black"/>
<path fill-rule="evenodd" clip-rule="evenodd" d="M114.63 173.461C114.63 172.467 115.436 171.659 116.432 171.659C117.429 171.659 118.234 172.467 118.234 173.461C118.234 174.455 117.429 175.263 116.432 175.263C115.436 175.263 114.63 174.455 114.63 173.461Z" fill="black"/>
<path fill-rule="evenodd" clip-rule="evenodd" d="M114.63 159.131C114.63 158.138 115.436 157.329 116.432 157.329C117.429 157.329 118.234 158.138 118.234 159.131C118.234 160.122 117.429 160.933 116.432 160.933C115.436 160.933 114.63 160.122 114.63 159.131Z" fill="black"/>
<path fill-rule="evenodd" clip-rule="evenodd" d="M114.63 144.799C114.63 143.808 115.436 143 116.432 143C117.429 143 118.234 143.808 118.234 144.799C118.234 145.793 117.429 146.604 116.432 146.604C115.436 146.604 114.63 145.793 114.63 144.799Z" fill="black"/>
<path fill-rule="evenodd" clip-rule="evenodd" d="M100.302 173.461C100.302 172.467 101.11 171.659 102.101 171.659C103.098 171.659 103.903 172.467 103.903 173.461C103.903 174.455 103.098 175.263 102.101 175.263C101.11 175.263 100.302 174.455 100.302 173.461Z" fill="black"/>
<path fill-rule="evenodd" clip-rule="evenodd" d="M100.302 159.131C100.302 158.138 101.11 157.329 102.101 157.329C103.098 157.329 103.903 158.138 103.903 159.131C103.903 160.122 103.098 160.933 102.101 160.933C101.11 160.933 100.302 160.122 100.302 159.131Z" fill="black"/>
<path fill-rule="evenodd" clip-rule="evenodd" d="M100.302 144.799C100.302 143.808 101.11 143 102.101 143C103.098 143 103.903 143.808 103.903 144.799C103.903 145.793 103.098 146.604 102.101 146.604C101.11 146.604 100.302 145.793 100.302 144.799Z" fill="black"/>
<path fill-rule="evenodd" clip-rule="evenodd" d="M85.9742 173.461C85.9742 172.467 86.7796 171.659 87.7761 171.659C88.77 171.659 89.5781 172.467 89.5781 173.461C89.5781 174.455 88.77 175.263 87.7761 175.263C86.7796 175.263 85.9742 174.455 85.9742 173.461Z" fill="black"/>
<path fill-rule="evenodd" clip-rule="evenodd" d="M85.9742 159.131C85.9742 158.138 86.7796 157.329 87.7761 157.329C88.77 157.329 89.5781 158.138 89.5781 159.131C89.5781 160.122 88.77 160.933 87.7761 160.933C86.7796 160.933 85.9742 160.122 85.9742 159.131Z" fill="black"/>
<path fill-rule="evenodd" clip-rule="evenodd" d="M85.9742 144.799C85.9742 143.808 86.7796 143 87.7761 143C88.77 143 89.5781 143.808 89.5781 144.799C89.5781 145.793 88.77 146.604 87.7761 146.604C86.7796 146.604 85.9742 145.793 85.9742 144.799Z" fill="black"/>
<path fill-rule="evenodd" clip-rule="evenodd" d="M71.6451 173.461C71.6451 172.467 72.4505 171.659 73.447 171.659C74.4436 171.659 75.249 172.467 75.249 173.461C75.249 174.455 74.4436 175.263 73.447 175.263C72.4505 175.263 71.6451 174.455 71.6451 173.461Z" fill="black"/>
<path fill-rule="evenodd" clip-rule="evenodd" d="M71.6451 159.131C71.6451 158.138 72.4505 157.329 73.447 157.329C74.4436 157.329 75.249 158.138 75.249 159.131C75.249 160.122 74.4436 160.933 73.447 160.933C72.4505 160.933 71.6451 160.122 71.6451 159.131Z" fill="black"/>
<path fill-rule="evenodd" clip-rule="evenodd" d="M71.6451 144.799C71.6451 143.808 72.4505 143 73.447 143C74.4436 143 75.249 143.808 75.249 144.799C75.249 145.793 74.4436 146.604 73.447 146.604C72.4505 146.604 71.6451 145.793 71.6451 144.799Z" fill="black"/>
<path fill-rule="evenodd" clip-rule="evenodd" d="M57.315 173.461C57.315 172.467 58.1231 171.659 59.117 171.659C60.1108 171.659 60.9189 172.467 60.9189 173.461C60.9189 174.455 60.1108 175.263 59.117 175.263C58.1231 175.263 57.315 174.455 57.315 173.461Z" fill="black"/>
<path fill-rule="evenodd" clip-rule="evenodd" d="M57.315 159.131C57.315 158.138 58.1231 157.329 59.117 157.329C60.1108 157.329 60.9189 158.138 60.9189 159.131C60.9189 160.122 60.1108 160.933 59.117 160.933C58.1231 160.933 57.315 160.122 57.315 159.131Z" fill="black"/>
<path fill-rule="evenodd" clip-rule="evenodd" d="M57.315 144.799C57.315 143.808 58.1231 143 59.117 143C60.1108 143 60.9189 143.808 60.9189 144.799C60.9189 145.793 60.1108 146.604 59.117 146.604C58.1231 146.604 57.315 145.793 57.315 144.799Z" fill="black"/>
<path fill-rule="evenodd" clip-rule="evenodd" d="M42.9868 173.461C42.9868 172.467 43.7923 171.659 44.7888 171.659C45.7854 171.659 46.5908 172.467 46.5908 173.461C46.5908 174.455 45.7854 175.263 44.7888 175.263C43.7923 175.263 42.9868 174.455 42.9868 173.461Z" fill="black"/>
<path fill-rule="evenodd" clip-rule="evenodd" d="M42.9868 159.131C42.9868 158.138 43.7923 157.329 44.7888 157.329C45.7854 157.329 46.5908 158.138 46.5908 159.131C46.5908 160.122 45.7854 160.933 44.7888 160.933C43.7923 160.933 42.9868 160.122 42.9868 159.131Z" fill="black"/>
<path fill-rule="evenodd" clip-rule="evenodd" d="M42.9868 144.799C42.9868 143.808 43.7923 143 44.7888 143C45.7854 143 46.5908 143.808 46.5908 144.799C46.5908 145.793 45.7854 146.604 44.7888 146.604C43.7923 146.604 42.9868 145.793 42.9868 144.799Z" fill="black"/>
<path fill-rule="evenodd" clip-rule="evenodd" d="M28.6568 173.461C28.6568 172.467 29.4649 171.659 30.4588 171.659C31.4553 171.659 32.2607 172.467 32.2607 173.461C32.2607 174.455 31.4553 175.263 30.4588 175.263C29.4649 175.263 28.6568 174.455 28.6568 173.461Z" fill="black"/>
<path fill-rule="evenodd" clip-rule="evenodd" d="M28.6568 159.131C28.6568 158.138 29.4649 157.329 30.4588 157.329C31.4553 157.329 32.2607 158.138 32.2607 159.131C32.2607 160.122 31.4553 160.933 30.4588 160.933C29.4649 160.933 28.6568 160.122 28.6568 159.131Z" fill="black"/>
<path fill-rule="evenodd" clip-rule="evenodd" d="M28.6568 144.799C28.6568 143.808 29.4649 143 30.4588 143C31.4553 143 32.2607 143.808 32.2607 144.799C32.2607 145.793 31.4553 146.604 30.4588 146.604C29.4649 146.604 28.6568 145.793 28.6568 144.799Z" fill="black"/>
<path fill-rule="evenodd" clip-rule="evenodd" d="M14.3286 173.461C14.3286 172.467 15.1341 171.659 16.1306 171.659C17.1217 171.659 17.9326 172.467 17.9326 173.461C17.9326 174.455 17.1217 175.263 16.1306 175.263C15.1341 175.263 14.3286 174.455 14.3286 173.461Z" fill="black"/>
<path fill-rule="evenodd" clip-rule="evenodd" d="M14.3286 159.131C14.3286 158.138 15.1341 157.329 16.1306 157.329C17.1217 157.329 17.9326 158.138 17.9326 159.131C17.9326 160.122 17.1217 160.933 16.1306 160.933C15.1341 160.933 14.3286 160.122 14.3286 159.131Z" fill="black"/>
<path fill-rule="evenodd" clip-rule="evenodd" d="M14.3286 144.799C14.3286 143.808 15.1341 143 16.1306 143C17.1217 143 17.9326 143.808 17.9326 144.799C17.9326 145.793 17.1217 146.604 16.1306 146.604C15.1341 146.604 14.3286 145.793 14.3286 144.799Z" fill="black"/>
<path fill-rule="evenodd" clip-rule="evenodd" d="M-0.000456312 173.461C-0.0004563 172.467 0.804977 171.659 1.80153 171.659C2.79808 171.659 3.60352 172.467 3.60352 173.461C3.60352 174.455 2.79808 175.263 1.80153 175.263C0.804977 175.263 -0.000456324 174.455 -0.000456312 173.461Z" fill="black"/>
<path fill-rule="evenodd" clip-rule="evenodd" d="M-0.000456312 159.131C-0.0004563 158.138 0.804977 157.329 1.80153 157.329C2.79808 157.329 3.60352 158.138 3.60352 159.131C3.60352 160.122 2.79808 160.933 1.80153 160.933C0.804977 160.933 -0.000456323 160.122 -0.000456312 159.131Z" fill="black"/>
<path fill-rule="evenodd" clip-rule="evenodd" d="M-0.000456312 144.799C-0.0004563 143.808 0.804977 143 1.80153 143C2.79808 143 3.60352 143.808 3.60352 144.799C3.60352 145.793 2.79808 146.604 1.80153 146.604C0.804977 146.604 -0.000456323 145.793 -0.000456312 144.799Z" fill="black"/>
<path fill-rule="evenodd" clip-rule="evenodd" d="M260.395 173.461C260.395 172.467 261.2 171.659 262.197 171.659C263.194 171.659 263.999 172.467 263.999 173.461C263.999 174.455 263.194 175.263 262.197 175.263C261.2 175.263 260.395 174.455 260.395 173.461Z" fill="black"/>
<path fill-rule="evenodd" clip-rule="evenodd" d="M260.396 159.131C260.396 158.138 261.201 157.329 262.198 157.329C263.195 157.329 264 158.138 264 159.131C264 160.122 263.195 160.933 262.198 160.933C261.201 160.933 260.396 160.122 260.396 159.131Z" fill="black"/>
<path fill-rule="evenodd" clip-rule="evenodd" d="M260.396 144.799C260.396 143.808 261.201 143 262.198 143C263.195 143 264 143.808 264 144.799C264 145.793 263.195 146.604 262.198 146.604C261.201 146.604 260.396 145.793 260.396 144.799Z" fill="black"/>
<path fill-rule="evenodd" clip-rule="evenodd" d="M246.071 173.461C246.071 172.467 246.879 171.659 247.87 171.659C248.866 171.659 249.672 172.467 249.672 173.461C249.672 174.455 248.866 175.263 247.87 175.263C246.879 175.263 246.071 174.455 246.071 173.461Z" fill="black"/>
<path fill-rule="evenodd" clip-rule="evenodd" d="M246.071 159.131C246.071 158.138 246.879 157.329 247.87 157.329C248.866 157.329 249.672 158.138 249.672 159.131C249.672 160.122 248.866 160.933 247.87 160.933C246.879 160.933 246.071 160.122 246.071 159.131Z" fill="black"/>
<path fill-rule="evenodd" clip-rule="evenodd" d="M246.071 144.799C246.071 143.808 246.879 143 247.87 143C248.866 143 249.672 143.808 249.672 144.799C249.672 145.793 248.866 146.604 247.87 146.604C246.879 146.604 246.071 145.793 246.071 144.799Z" fill="black"/>
<path fill-rule="evenodd" clip-rule="evenodd" d="M231.741 173.461C231.741 172.467 232.546 171.659 233.543 171.659C234.537 171.659 235.345 172.467 235.345 173.461C235.345 174.455 234.537 175.263 233.543 175.263C232.546 175.263 231.741 174.455 231.741 173.461Z" fill="black"/>
<path fill-rule="evenodd" clip-rule="evenodd" d="M231.741 159.131C231.741 158.138 232.546 157.329 233.543 157.329C234.537 157.329 235.345 158.138 235.345 159.131C235.345 160.122 234.537 160.933 233.543 160.933C232.546 160.933 231.741 160.122 231.741 159.131Z" fill="black"/>
<path fill-rule="evenodd" clip-rule="evenodd" d="M231.741 144.799C231.741 143.808 232.546 143 233.543 143C234.537 143 235.345 143.808 235.345 144.799C235.345 145.793 234.537 146.604 233.543 146.604C232.546 146.604 231.741 145.793 231.741 144.799Z" fill="black"/>
<path fill-rule="evenodd" clip-rule="evenodd" d="M217.412 173.461C217.412 172.467 218.217 171.659 219.214 171.659C220.21 171.659 221.016 172.467 221.016 173.461C221.016 174.455 220.21 175.263 219.214 175.263C218.217 175.263 217.412 174.455 217.412 173.461Z" fill="black"/>
<path fill-rule="evenodd" clip-rule="evenodd" d="M217.412 159.131C217.412 158.138 218.217 157.329 219.214 157.329C220.21 157.329 221.016 158.138 221.016 159.131C221.016 160.122 220.21 160.933 219.214 160.933C218.217 160.933 217.412 160.122 217.412 159.131Z" fill="black"/>
<path fill-rule="evenodd" clip-rule="evenodd" d="M217.412 144.799C217.412 143.808 218.217 143 219.214 143C220.21 143 221.016 143.808 221.016 144.799C221.016 145.793 220.21 146.604 219.214 146.604C218.217 146.604 217.412 145.793 217.412 144.799Z" fill="black"/>
<path fill-rule="evenodd" clip-rule="evenodd" d="M203.083 173.461C203.083 172.467 203.891 171.659 204.885 171.659C205.878 171.659 206.687 172.467 206.687 173.461C206.687 174.455 205.878 175.263 204.885 175.263C203.891 175.263 203.083 174.455 203.083 173.461Z" fill="black"/>
<path fill-rule="evenodd" clip-rule="evenodd" d="M203.083 159.131C203.083 158.138 203.891 157.329 204.885 157.329C205.878 157.329 206.687 158.138 206.687 159.131C206.687 160.122 205.878 160.933 204.885 160.933C203.891 160.933 203.083 160.122 203.083 159.131Z" fill="black"/>
<path fill-rule="evenodd" clip-rule="evenodd" d="M203.083 144.799C203.083 143.808 203.891 143 204.885 143C205.878 143 206.687 143.808 206.687 144.799C206.687 145.793 205.878 146.604 204.885 146.604C203.891 146.604 203.083 145.793 203.083 144.799Z" fill="black"/>
<path fill-rule="evenodd" clip-rule="evenodd" d="M188.753 173.461C188.753 172.467 189.559 171.659 190.555 171.659C191.552 171.659 192.357 172.467 192.357 173.461C192.357 174.455 191.552 175.263 190.555 175.263C189.559 175.263 188.753 174.455 188.753 173.461Z" fill="black"/>
<path fill-rule="evenodd" clip-rule="evenodd" d="M188.753 159.131C188.753 158.138 189.559 157.329 190.555 157.329C191.552 157.329 192.357 158.138 192.357 159.131C192.357 160.122 191.552 160.933 190.555 160.933C189.559 160.933 188.753 160.122 188.753 159.131Z" fill="black"/>
<path fill-rule="evenodd" clip-rule="evenodd" d="M188.753 144.799C188.753 143.808 189.559 143 190.555 143C191.552 143 192.357 143.808 192.357 144.799C192.357 145.793 191.552 146.604 190.555 146.604C189.559 146.604 188.753 145.793 188.753 144.799Z" fill="black"/>
<path fill-rule="evenodd" clip-rule="evenodd" d="M174.424 173.461C174.424 172.467 175.233 171.659 176.226 171.659C177.223 171.659 178.028 172.467 178.028 173.461C178.028 174.455 177.223 175.263 176.226 175.263C175.233 175.263 174.424 174.455 174.424 173.461Z" fill="black"/>
<path fill-rule="evenodd" clip-rule="evenodd" d="M174.424 159.131C174.424 158.138 175.233 157.329 176.226 157.329C177.223 157.329 178.028 158.138 178.028 159.131C178.028 160.122 177.223 160.933 176.226 160.933C175.233 160.933 174.424 160.122 174.424 159.131Z" fill="black"/>
<path fill-rule="evenodd" clip-rule="evenodd" d="M174.424 144.799C174.424 143.808 175.233 143 176.226 143C177.223 143 178.028 143.808 178.028 144.799C178.028 145.793 177.223 146.604 176.226 146.604C175.233 146.604 174.424 145.793 174.424 144.799Z" fill="black"/>
<path fill-rule="evenodd" clip-rule="evenodd" d="M160.094 173.461C160.094 172.467 160.9 171.659 161.896 171.659C162.887 171.659 163.698 172.467 163.698 173.461C163.698 174.455 162.887 175.263 161.896 175.263C160.9 175.263 160.094 174.455 160.094 173.461Z" fill="black"/>
<path fill-rule="evenodd" clip-rule="evenodd" d="M160.094 159.131C160.094 158.138 160.9 157.329 161.896 157.329C162.887 157.329 163.698 158.138 163.698 159.131C163.698 160.122 162.887 160.933 161.896 160.933C160.9 160.933 160.094 160.122 160.094 159.131Z" fill="black"/>
<path fill-rule="evenodd" clip-rule="evenodd" d="M160.094 144.799C160.094 143.808 160.9 143 161.896 143C162.887 143 163.698 143.808 163.698 144.799C163.698 145.793 162.887 146.604 161.896 146.604C160.9 146.604 160.094 145.793 160.094 144.799Z" fill="black"/>
<path fill-rule="evenodd" clip-rule="evenodd" d="M145.766 173.461C145.766 172.467 146.572 171.659 147.568 171.659C148.565 171.659 149.37 172.467 149.37 173.461C149.37 174.455 148.565 175.263 147.568 175.263C146.572 175.263 145.766 174.455 145.766 173.461Z" fill="black"/>
<path fill-rule="evenodd" clip-rule="evenodd" d="M145.766 159.131C145.766 158.138 146.572 157.329 147.568 157.329C148.565 157.329 149.37 158.138 149.37 159.131C149.37 160.122 148.565 160.933 147.568 160.933C146.572 160.933 145.766 160.122 145.766 159.131Z" fill="black"/>
<path fill-rule="evenodd" clip-rule="evenodd" d="M145.766 144.799C145.766 143.808 146.572 143 147.568 143C148.565 143 149.37 143.808 149.37 144.799C149.37 145.793 148.565 146.604 147.568 146.604C146.572 146.604 145.766 145.793 145.766 144.799Z" fill="black"/>
<path fill-rule="evenodd" clip-rule="evenodd" d="M288.395 173.461C288.395 172.467 289.2 171.659 290.197 171.659C291.194 171.659 291.999 172.467 291.999 173.461C291.999 174.455 291.194 175.263 290.197 175.263C289.2 175.263 288.395 174.455 288.395 173.461Z" fill="black"/>
<path fill-rule="evenodd" clip-rule="evenodd" d="M288.396 159.131C288.396 158.138 289.201 157.329 290.198 157.329C291.195 157.329 292 158.138 292 159.131C292 160.122 291.195 160.933 290.198 160.933C289.201 160.933 288.396 160.122 288.396 159.131Z" fill="black"/>
<path fill-rule="evenodd" clip-rule="evenodd" d="M288.396 144.799C288.396 143.808 289.201 143 290.198 143C291.195 143 292 143.808 292 144.799C292 145.793 291.195 146.604 290.198 146.604C289.201 146.604 288.396 145.793 288.396 144.799Z" fill="black"/>
<path fill-rule="evenodd" clip-rule="evenodd" d="M274.071 173.461C274.071 172.467 274.879 171.659 275.87 171.659C276.866 171.659 277.672 172.467 277.672 173.461C277.672 174.455 276.866 175.263 275.87 175.263C274.879 175.263 274.071 174.455 274.071 173.461Z" fill="black"/>
<path fill-rule="evenodd" clip-rule="evenodd" d="M274.071 159.131C274.071 158.138 274.879 157.329 275.87 157.329C276.866 157.329 277.672 158.138 277.672 159.131C277.672 160.122 276.866 160.933 275.87 160.933C274.879 160.933 274.071 160.122 274.071 159.131Z" fill="black"/>
<path fill-rule="evenodd" clip-rule="evenodd" d="M274.071 144.799C274.071 143.808 274.879 143 275.87 143C276.866 143 277.672 143.808 277.672 144.799C277.672 145.793 276.866 146.604 275.87 146.604C274.879 146.604 274.071 145.793 274.071 144.799Z" fill="black"/>
<path fill-rule="evenodd" clip-rule="evenodd" d="M274.071 87.7803C274.071 86.7865 274.879 85.9783 275.87 85.9783C276.866 85.9783 277.672 86.7865 277.672 87.7803C277.672 88.7741 276.866 89.5823 275.87 89.5823C274.879 89.5823 274.071 88.7741 274.071 87.7803Z" fill="black"/>
<path fill-rule="evenodd" clip-rule="evenodd" d="M288.396 73.4482C288.396 72.4571 289.201 71.6462 290.198 71.6462C291.195 71.6462 292 72.4571 292 73.4482C292 74.442 291.195 75.2529 290.198 75.2529C289.201 75.2529 288.396 74.442 288.396 73.4482Z" fill="black"/>
<path fill-rule="evenodd" clip-rule="evenodd" d="M288.396 59.1216C288.396 58.1251 289.201 57.3169 290.198 57.3169C291.195 57.3169 292 58.1251 292 59.1216C292 60.1127 291.195 60.9209 290.198 60.9209C289.201 60.9209 288.396 60.1127 288.396 59.1216Z" fill="black"/>
<path fill-rule="evenodd" clip-rule="evenodd" d="M288.396 44.7896C288.396 43.7957 289.201 42.9876 290.198 42.9876C291.195 42.9876 292 43.7957 292 44.7896C292 45.7834 291.195 46.5916 290.198 46.5916C289.201 46.5916 288.396 45.7834 288.396 44.7896Z" fill="black"/>
<path fill-rule="evenodd" clip-rule="evenodd" d="M288.396 30.4602C288.396 29.4664 289.201 28.6582 290.198 28.6582C291.195 28.6582 292 29.4664 292 30.4602C292 31.4513 291.195 32.2622 290.198 32.2622C289.201 32.2622 288.396 31.4513 288.396 30.4602Z" fill="black"/>
<path fill-rule="evenodd" clip-rule="evenodd" d="M288.396 16.1284C288.396 15.1373 289.201 14.3291 290.198 14.3291C291.195 14.3291 292 15.1373 292 16.1284C292 17.1222 291.195 17.9331 290.198 17.9331C289.201 17.9331 288.396 17.1222 288.396 16.1284Z" fill="black"/>
<path fill-rule="evenodd" clip-rule="evenodd" d="M288.396 1.80177C288.396 0.807951 289.201 -0.000212226 290.198 -0.000212214C291.195 -0.000212202 292 0.807951 292 1.80177C292 2.7956 291.195 3.60376 290.198 3.60376C289.201 3.60376 288.396 2.7956 288.396 1.80177Z" fill="black"/>
<path fill-rule="evenodd" clip-rule="evenodd" d="M274.071 73.4482C274.071 72.4571 274.879 71.6462 275.87 71.6462C276.866 71.6462 277.672 72.4571 277.672 73.4482C277.672 74.442 276.866 75.2529 275.87 75.2529C274.879 75.2529 274.071 74.442 274.071 73.4482Z" fill="black"/>
<path fill-rule="evenodd" clip-rule="evenodd" d="M274.071 59.1216C274.071 58.1251 274.879 57.3169 275.87 57.3169C276.866 57.3169 277.672 58.1251 277.672 59.1216C277.672 60.1127 276.866 60.9209 275.87 60.9209C274.879 60.9209 274.071 60.1127 274.071 59.1216Z" fill="black"/>
<path fill-rule="evenodd" clip-rule="evenodd" d="M274.071 44.7896C274.071 43.7957 274.879 42.9876 275.87 42.9876C276.866 42.9876 277.672 43.7957 277.672 44.7896C277.672 45.7834 276.866 46.5916 275.87 46.5916C274.879 46.5916 274.071 45.7834 274.071 44.7896Z" fill="black"/>
<path fill-rule="evenodd" clip-rule="evenodd" d="M274.071 30.4602C274.071 29.4664 274.879 28.6582 275.87 28.6582C276.866 28.6582 277.672 29.4664 277.672 30.4602C277.672 31.4513 276.866 32.2622 275.87 32.2622C274.879 32.2622 274.071 31.4513 274.071 30.4602Z" fill="black"/>
<path fill-rule="evenodd" clip-rule="evenodd" d="M274.071 16.1284C274.071 15.1373 274.879 14.3291 275.87 14.3291C276.866 14.3291 277.672 15.1373 277.672 16.1284C277.672 17.1222 276.866 17.9331 275.87 17.9331C274.879 17.9331 274.071 17.1222 274.071 16.1284Z" fill="black"/>
<path fill-rule="evenodd" clip-rule="evenodd" d="M274.071 1.80177C274.071 0.807951 274.879 -0.000212226 275.87 -0.000212214C276.866 -0.000212202 277.672 0.807951 277.672 1.80177C277.672 2.7956 276.866 3.60376 275.87 3.60376C274.879 3.60376 274.071 2.7956 274.071 1.80177Z" fill="black"/>
<path fill-rule="evenodd" clip-rule="evenodd" d="M231.741 73.4482C231.741 72.4571 232.546 71.6462 233.543 71.6462C234.537 71.6462 235.345 72.4571 235.345 73.4482C235.345 74.442 234.537 75.2529 233.543 75.2529C232.546 75.2529 231.741 74.442 231.741 73.4482Z" fill="black"/>
<path fill-rule="evenodd" clip-rule="evenodd" d="M231.741 59.1216C231.741 58.1251 232.546 57.3169 233.543 57.3169C234.537 57.3169 235.345 58.1251 235.345 59.1216C235.345 60.1127 234.537 60.9209 233.543 60.9209C232.546 60.9209 231.741 60.1127 231.741 59.1216Z" fill="black"/>
<path fill-rule="evenodd" clip-rule="evenodd" d="M231.741 44.7896C231.741 43.7957 232.546 42.9876 233.543 42.9876C234.537 42.9876 235.345 43.7957 235.345 44.7896C235.345 45.7834 234.537 46.5916 233.543 46.5916C232.546 46.5916 231.741 45.7834 231.741 44.7896Z" fill="black"/>
<path fill-rule="evenodd" clip-rule="evenodd" d="M231.741 30.4602C231.741 29.4664 232.546 28.6582 233.543 28.6582C234.537 28.6582 235.345 29.4664 235.345 30.4602C235.345 31.4513 234.537 32.2622 233.543 32.2622C232.546 32.2622 231.741 31.4513 231.741 30.4602Z" fill="black"/>
<path fill-rule="evenodd" clip-rule="evenodd" d="M231.741 16.1284C231.741 15.1373 232.546 14.3291 233.543 14.3291C234.537 14.3291 235.345 15.1373 235.345 16.1284C235.345 17.1222 234.537 17.9331 233.543 17.9331C232.546 17.9331 231.741 17.1222 231.741 16.1284Z" fill="black"/>
<path fill-rule="evenodd" clip-rule="evenodd" d="M231.741 1.80177C231.741 0.807951 232.546 -0.000212226 233.543 -0.000212214C234.537 -0.000212202 235.345 0.807951 235.345 1.80177C235.345 2.7956 234.537 3.60376 233.543 3.60376C232.546 3.60376 231.741 2.7956 231.741 1.80177Z" fill="black"/>
<path fill-rule="evenodd" clip-rule="evenodd" d="M217.412 73.4482C217.412 72.4571 218.217 71.6462 219.214 71.6462C220.21 71.6462 221.016 72.4571 221.016 73.4482C221.016 74.442 220.21 75.2529 219.214 75.2529C218.217 75.2529 217.412 74.442 217.412 73.4482Z" fill="black"/>
<path fill-rule="evenodd" clip-rule="evenodd" d="M217.412 59.1216C217.412 58.1251 218.217 57.3169 219.214 57.3169C220.21 57.3169 221.016 58.1251 221.016 59.1216C221.016 60.1127 220.21 60.9209 219.214 60.9209C218.217 60.9209 217.412 60.1127 217.412 59.1216Z" fill="black"/>
<path fill-rule="evenodd" clip-rule="evenodd" d="M217.412 44.7896C217.412 43.7957 218.217 42.9876 219.214 42.9876C220.21 42.9876 221.016 43.7957 221.016 44.7896C221.016 45.7834 220.21 46.5916 219.214 46.5916C218.217 46.5916 217.412 45.7834 217.412 44.7896Z" fill="black"/>
<path fill-rule="evenodd" clip-rule="evenodd" d="M217.412 30.4602C217.412 29.4664 218.217 28.6582 219.214 28.6582C220.21 28.6582 221.016 29.4664 221.016 30.4602C221.016 31.4513 220.21 32.2622 219.214 32.2622C218.217 32.2622 217.412 31.4513 217.412 30.4602Z" fill="black"/>
<path fill-rule="evenodd" clip-rule="evenodd" d="M217.412 16.1284C217.412 15.1373 218.217 14.3291 219.214 14.3291C220.21 14.3291 221.016 15.1373 221.016 16.1284C221.016 17.1222 220.21 17.9331 219.214 17.9331C218.217 17.9331 217.412 17.1222 217.412 16.1284Z" fill="black"/>
<path fill-rule="evenodd" clip-rule="evenodd" d="M217.412 1.80177C217.412 0.807951 218.217 -0.000212226 219.214 -0.000212214C220.21 -0.000212202 221.016 0.807951 221.016 1.80177C221.016 2.7956 220.21 3.60376 219.214 3.60376C218.217 3.60376 217.412 2.7956 217.412 1.80177Z" fill="black"/>
<path fill-rule="evenodd" clip-rule="evenodd" d="M203.083 73.4482C203.083 72.4571 203.891 71.6462 204.885 71.6462C205.878 71.6462 206.687 72.4571 206.687 73.4482C206.687 74.442 205.878 75.2529 204.885 75.2529C203.891 75.2529 203.083 74.442 203.083 73.4482Z" fill="black"/>
<path fill-rule="evenodd" clip-rule="evenodd" d="M203.083 59.1216C203.083 58.1251 203.891 57.3169 204.885 57.3169C205.878 57.3169 206.687 58.1251 206.687 59.1216C206.687 60.1127 205.878 60.9209 204.885 60.9209C203.891 60.9209 203.083 60.1127 203.083 59.1216Z" fill="black"/>
<path fill-rule="evenodd" clip-rule="evenodd" d="M203.083 44.7896C203.083 43.7957 203.891 42.9876 204.885 42.9876C205.878 42.9876 206.687 43.7957 206.687 44.7896C206.687 45.7834 205.878 46.5916 204.885 46.5916C203.891 46.5916 203.083 45.7834 203.083 44.7896Z" fill="black"/>
<path fill-rule="evenodd" clip-rule="evenodd" d="M203.083 30.4602C203.083 29.4664 203.891 28.6582 204.885 28.6582C205.878 28.6582 206.687 29.4664 206.687 30.4602C206.687 31.4513 205.878 32.2622 204.885 32.2622C203.891 32.2622 203.083 31.4513 203.083 30.4602Z" fill="black"/>
<path fill-rule="evenodd" clip-rule="evenodd" d="M203.083 16.1284C203.083 15.1373 203.891 14.3291 204.885 14.3291C205.878 14.3291 206.687 15.1373 206.687 16.1284C206.687 17.1222 205.878 17.9331 204.885 17.9331C203.891 17.9331 203.083 17.1222 203.083 16.1284Z" fill="black"/>
<path fill-rule="evenodd" clip-rule="evenodd" d="M203.083 1.80177C203.083 0.807951 203.891 -0.000212226 204.885 -0.000212214C205.878 -0.000212202 206.687 0.807951 206.687 1.80177C206.687 2.7956 205.878 3.60376 204.885 3.60376C203.891 3.60376 203.083 2.7956 203.083 1.80177Z" fill="black"/>
<path fill-rule="evenodd" clip-rule="evenodd" d="M188.753 73.4482C188.753 72.4571 189.559 71.6462 190.555 71.6462C191.552 71.6462 192.357 72.4571 192.357 73.4482C192.357 74.442 191.552 75.2529 190.555 75.2529C189.559 75.2529 188.753 74.442 188.753 73.4482Z" fill="black"/>
<path fill-rule="evenodd" clip-rule="evenodd" d="M188.753 59.1216C188.753 58.1251 189.559 57.3169 190.555 57.3169C191.552 57.3169 192.357 58.1251 192.357 59.1216C192.357 60.1127 191.552 60.9209 190.555 60.9209C189.559 60.9209 188.753 60.1127 188.753 59.1216Z" fill="black"/>
<path fill-rule="evenodd" clip-rule="evenodd" d="M188.753 44.7896C188.753 43.7957 189.559 42.9876 190.555 42.9876C191.552 42.9876 192.357 43.7957 192.357 44.7896C192.357 45.7834 191.552 46.5916 190.555 46.5916C189.559 46.5916 188.753 45.7834 188.753 44.7896Z" fill="black"/>
<path fill-rule="evenodd" clip-rule="evenodd" d="M188.753 30.4602C188.753 29.4664 189.559 28.6582 190.555 28.6582C191.552 28.6582 192.357 29.4664 192.357 30.4602C192.357 31.4513 191.552 32.2622 190.555 32.2622C189.559 32.2622 188.753 31.4513 188.753 30.4602Z" fill="black"/>
<path fill-rule="evenodd" clip-rule="evenodd" d="M188.753 16.1284C188.753 15.1373 189.559 14.3291 190.555 14.3291C191.552 14.3291 192.357 15.1373 192.357 16.1284C192.357 17.1222 191.552 17.9331 190.555 17.9331C189.559 17.9331 188.753 17.1222 188.753 16.1284Z" fill="black"/>
<path fill-rule="evenodd" clip-rule="evenodd" d="M188.753 1.80177C188.753 0.807951 189.559 -0.000212226 190.555 -0.000212214C191.552 -0.000212202 192.357 0.807951 192.357 1.80177C192.357 2.7956 191.552 3.60376 190.555 3.60376C189.559 3.60376 188.753 2.7956 188.753 1.80177Z" fill="black"/>
<path fill-rule="evenodd" clip-rule="evenodd" d="M174.424 73.4482C174.424 72.4571 175.233 71.6462 176.226 71.6462C177.223 71.6462 178.028 72.4571 178.028 73.4482C178.028 74.442 177.223 75.2529 176.226 75.2529C175.233 75.2529 174.424 74.442 174.424 73.4482Z" fill="black"/>
<path fill-rule="evenodd" clip-rule="evenodd" d="M174.424 59.1216C174.424 58.1251 175.233 57.3169 176.226 57.3169C177.223 57.3169 178.028 58.1251 178.028 59.1216C178.028 60.1127 177.223 60.9209 176.226 60.9209C175.233 60.9209 174.424 60.1127 174.424 59.1216Z" fill="black"/>
<path fill-rule="evenodd" clip-rule="evenodd" d="M174.424 44.7896C174.424 43.7957 175.233 42.9876 176.226 42.9876C177.223 42.9876 178.028 43.7957 178.028 44.7896C178.028 45.7834 177.223 46.5916 176.226 46.5916C175.233 46.5916 174.424 45.7834 174.424 44.7896Z" fill="black"/>
<path fill-rule="evenodd" clip-rule="evenodd" d="M174.424 30.4602C174.424 29.4664 175.233 28.6582 176.226 28.6582C177.223 28.6582 178.028 29.4664 178.028 30.4602C178.028 31.4513 177.223 32.2622 176.226 32.2622C175.233 32.2622 174.424 31.4513 174.424 30.4602Z" fill="black"/>
<path fill-rule="evenodd" clip-rule="evenodd" d="M174.424 16.1284C174.424 15.1373 175.233 14.3291 176.226 14.3291C177.223 14.3291 178.028 15.1373 178.028 16.1284C178.028 17.1222 177.223 17.9331 176.226 17.9331C175.233 17.9331 174.424 17.1222 174.424 16.1284Z" fill="black"/>
<path fill-rule="evenodd" clip-rule="evenodd" d="M174.424 1.80177C174.424 0.807951 175.233 -0.000212226 176.226 -0.000212214C177.223 -0.000212202 178.028 0.807951 178.028 1.80177C178.028 2.7956 177.223 3.60376 176.226 3.60376C175.233 3.60376 174.424 2.7956 174.424 1.80177Z" fill="black"/>
<path fill-rule="evenodd" clip-rule="evenodd" d="M160.094 73.4482C160.094 72.4571 160.9 71.6462 161.896 71.6462C162.887 71.6462 163.698 72.4571 163.698 73.4482C163.698 74.442 162.887 75.2529 161.896 75.2529C160.9 75.2529 160.094 74.442 160.094 73.4482Z" fill="black"/>
<path fill-rule="evenodd" clip-rule="evenodd" d="M160.094 59.1216C160.094 58.1251 160.9 57.3169 161.896 57.3169C162.887 57.3169 163.698 58.1251 163.698 59.1216C163.698 60.1127 162.887 60.9209 161.896 60.9209C160.9 60.9209 160.094 60.1127 160.094 59.1216Z" fill="black"/>
<path fill-rule="evenodd" clip-rule="evenodd" d="M160.094 44.7896C160.094 43.7957 160.9 42.9876 161.896 42.9876C162.887 42.9876 163.698 43.7957 163.698 44.7896C163.698 45.7834 162.887 46.5916 161.896 46.5916C160.9 46.5916 160.094 45.7834 160.094 44.7896Z" fill="black"/>
<path fill-rule="evenodd" clip-rule="evenodd" d="M160.094 30.4602C160.094 29.4664 160.9 28.6582 161.896 28.6582C162.887 28.6582 163.698 29.4664 163.698 30.4602C163.698 31.4513 162.887 32.2622 161.896 32.2622C160.9 32.2622 160.094 31.4513 160.094 30.4602Z" fill="black"/>
<path fill-rule="evenodd" clip-rule="evenodd" d="M160.094 16.1284C160.094 15.1373 160.9 14.3291 161.896 14.3291C162.887 14.3291 163.698 15.1373 163.698 16.1284C163.698 17.1222 162.887 17.9331 161.896 17.9331C160.9 17.9331 160.094 17.1222 160.094 16.1284Z" fill="black"/>
<path fill-rule="evenodd" clip-rule="evenodd" d="M160.094 1.80177C160.094 0.807951 160.9 -0.000212226 161.896 -0.000212214C162.887 -0.000212202 163.698 0.807951 163.698 1.80177C163.698 2.7956 162.887 3.60376 161.896 3.60376C160.9 3.60376 160.094 2.7956 160.094 1.80177Z" fill="black"/>
<path fill-rule="evenodd" clip-rule="evenodd" d="M145.766 73.4482C145.766 72.4571 146.572 71.6462 147.568 71.6462C148.565 71.6462 149.37 72.4571 149.37 73.4482C149.37 74.442 148.565 75.2529 147.568 75.2529C146.572 75.2529 145.766 74.442 145.766 73.4482Z" fill="black"/>
<path fill-rule="evenodd" clip-rule="evenodd" d="M145.766 59.1216C145.766 58.1251 146.572 57.3169 147.568 57.3169C148.565 57.3169 149.37 58.1251 149.37 59.1216C149.37 60.1127 148.565 60.9209 147.568 60.9209C146.572 60.9209 145.766 60.1127 145.766 59.1216Z" fill="black"/>
<path fill-rule="evenodd" clip-rule="evenodd" d="M145.766 44.7896C145.766 43.7957 146.572 42.9876 147.568 42.9876C148.565 42.9876 149.37 43.7957 149.37 44.7896C149.37 45.7834 148.565 46.5916 147.568 46.5916C146.572 46.5916 145.766 45.7834 145.766 44.7896Z" fill="black"/>
<path fill-rule="evenodd" clip-rule="evenodd" d="M145.766 30.4602C145.766 29.4664 146.572 28.6582 147.568 28.6582C148.565 28.6582 149.37 29.4664 149.37 30.4602C149.37 31.4513 148.565 32.2622 147.568 32.2622C146.572 32.2622 145.766 31.4513 145.766 30.4602Z" fill="black"/>
<path fill-rule="evenodd" clip-rule="evenodd" d="M145.766 16.1284C145.766 15.1373 146.572 14.3291 147.568 14.3291C148.565 14.3291 149.37 15.1373 149.37 16.1284C149.37 17.1222 148.565 17.9331 147.568 17.9331C146.572 17.9331 145.766 17.1222 145.766 16.1284Z" fill="black"/>
<path fill-rule="evenodd" clip-rule="evenodd" d="M145.766 1.80177C145.766 0.807951 146.572 -0.000212226 147.568 -0.000212214C148.565 -0.000212202 149.37 0.807951 149.37 1.80177C149.37 2.7956 148.565 3.60376 147.568 3.60376C146.572 3.60376 145.766 2.7956 145.766 1.80177Z" fill="black"/>
</g>
</svg>
